<?xml version="1.0" encoding="UTF-8" standalone="no"?>
<!-- Created with Inkscape (http://www.inkscape.org/) -->

<svg
   xmlns:dc="http://purl.org/dc/elements/1.1/"
   xmlns:cc="http://creativecommons.org/ns#"
   xmlns:rdf="http://www.w3.org/1999/02/22-rdf-syntax-ns#"
   xmlns:svg="http://www.w3.org/2000/svg"
   xmlns="http://www.w3.org/2000/svg"
   xmlns:xlink="http://www.w3.org/1999/xlink"
   xmlns:sodipodi="http://sodipodi.sourceforge.net/DTD/sodipodi-0.dtd"
   xmlns:inkscape="http://www.inkscape.org/namespaces/inkscape"
   id="svg2"
   version="1.1"
   inkscape:version="0.48.4 r9939"
   width="1440"
   height="2640"
   sodipodi:docname="bg.svg">
  <sodipodi:namedview
     pagecolor="#ffffff"
     bordercolor="#666666"
     borderopacity="1"
     objecttolerance="10"
     gridtolerance="10"
     guidetolerance="10"
     inkscape:pageopacity="0"
     inkscape:pageshadow="2"
     inkscape:window-width="1553"
     inkscape:window-height="876"
     id="namedview4"
     showgrid="false"
     inkscape:zoom="0.50568849"
     inkscape:cx="427.84202"
     inkscape:cy="1944.3838"
     inkscape:window-x="47"
     inkscape:window-y="24"
     inkscape:window-maximized="1"
     inkscape:current-layer="svg2" />
  <metadata
     id="metadata8">
    <rdf:RDF>
      <cc:Work
         rdf:about="">
        <dc:format>image/svg+xml</dc:format>
        <dc:type
           rdf:resource="http://purl.org/dc/dcmitype/StillImage" />
        <dc:title></dc:title>
      </cc:Work>
    </rdf:RDF>
  </metadata>
  <defs
     id="defs6">
    <linearGradient
       id="linearGradient2990">
      <stop
         id="stop2992"
         offset="0"
         style="stop-color:#1c9375;stop-opacity:1;" />
      <stop
         id="stop2994"
         offset="1"
         style="stop-color:#56a5b6;stop-opacity:1" />
    </linearGradient>
    <radialGradient
       gradientUnits="userSpaceOnUse"
       gradientTransform="matrix(0.47442249,2.2241973,-2.8756499,0.61337773,2385.1983,-954.74133)"
       r="733.65326"
       fy="788.40118"
       fx="351.43295"
       cy="788.40118"
       cx="351.43295"
       id="radialGradient2996"
       xlink:href="#linearGradient2990"
       inkscape:collect="always" />
    <linearGradient
       gradientTransform="translate(-21.752522,51.415052)"
       gradientUnits="userSpaceOnUse"
       y2="565.57977"
       x2="1428.0411"
       y1="132.50684"
       x1="54.941856"
       id="linearGradient3783-5"
       xlink:href="#linearGradient2990-2"
       inkscape:collect="always" />
    <linearGradient
       id="linearGradient2990-2">
      <stop
         id="stop2992-8"
         offset="0"
         style="stop-color:#1c9375;stop-opacity:1;" />
      <stop
         id="stop2994-2"
         offset="1"
         style="stop-color:#56a5b6;stop-opacity:1" />
    </linearGradient>
  </defs>
  <image
     y="-7.5645357e-07"
     x="1.9774789"
     id="image10"
     xlink:href="file:///home/cleguyadec/Bureau/overflow/images/bg.jpg"
     height="2640"
     width="1440"
     inkscape:export-filename="/home/cleguyadec/Bureau/overflow/images/ibg.png"
     inkscape:export-xdpi="371"
     inkscape:export-ydpi="371" />
  <g
     sodipodi:insensitive="true"
     style="display:inline"
     inkscape:label="Fond"
     id="layer1"
     inkscape:groupmode="layer">
    <rect
       rx="6.4517798"
       y="-1.9426941"
       x="-7.9100599"
       height="2661.7178"
       width="1467.3065"
       id="rect2988"
       style="fill:url(#radialGradient2996);fill-opacity:1;stroke:none" />
  </g>
  <g
     sodipodi:insensitive="true"
     style="display:inline"
     inkscape:label="Fond2"
     id="layer2"
     inkscape:groupmode="layer">
    <path
       sodipodi:nodetypes="csssssc"
       inkscape:connector-curvature="0"
       id="path3769"
       d="m -0.87069026,2.0615526 c 0,0 -48.64656874,583.0173674 651.92123026,298.2767974 C 1389.7717,0.09063102 1390.5198,962.29364 813.99228,748.07502 567.03397,656.31344 339.0404,504.33215 203.85856,758.04846 c -45.80343,85.96626 21.12286,380.33174 322.29655,347.07574 218.79074,-24.159 283.98274,-229.80637 531.07989,-251.33069 181.9167,-15.84654 395.8455,289.18829 395.8455,289.18829"
       style="fill:none;stroke:#ffffff;stroke-width:3.45723414;stroke-linecap:butt;stroke-linejoin:miter;stroke-miterlimit:4;stroke-opacity:0.28148151;stroke-dasharray:3.45723405, 20.74340432;stroke-dashoffset:0" />
  </g>
  <g
     style="display:inline"
     inkscape:label="Engrenage"
     id="layer3"
     inkscape:groupmode="layer"
     sodipodi:insensitive="true">
    <g
       style="opacity:0.12244897"
       transform="matrix(0.43009307,0,0,0.43009307,-14.270482,116.96776)"
       id="g3862">
      <rect
         style="fill:#f9f9f9;fill-opacity:1;stroke:none"
         id="rect3854"
         width="158.00847"
         height="79.703392"
         x="39.152542"
         y="163.60168"
         rx="6.4517798" />
      <rect
         style="fill:#f9f9f9;fill-opacity:1;stroke:none"
         id="rect3856"
         width="46.14407"
         height="51.737289"
         x="180.38136"
         y="191.56779"
         rx="6.4517798" />
      <path
         sodipodi:type="arc"
         style="fill:#f9f9f9;fill-opacity:1;stroke:none"
         id="path3858"
         sodipodi:cx="79.004234"
         sodipodi:cy="248.19914"
         sodipodi:rx="18.877119"
         sodipodi:ry="18.877119"
         d="m 97.881353,248.19914 a 18.877119,18.877119 0 1 1 -37.754238,0 18.877119,18.877119 0 1 1 37.754238,0 z" />
      <path
         sodipodi:type="arc"
         style="fill:#f9f9f9;fill-opacity:1;stroke:none"
         id="path3860"
         sodipodi:cx="149.61864"
         sodipodi:cy="253.09322"
         sodipodi:rx="18.177967"
         sodipodi:ry="18.177967"
         d="m 167.7966,253.09322 a 18.177967,18.177967 0 1 1 -36.35593,0 18.177967,18.177967 0 1 1 36.35593,0 z"
         transform="translate(23.771186,-2.7966102)" />
    </g>
    <g
       transform="translate(40.550848,57.330509)"
       id="g3961">
      <rect
         style="opacity:0.12244897;fill:#f9f9f9;fill-opacity:1;stroke:none"
         id="rect3868"
         width="59.325058"
         height="50.232616"
         x="1145.613"
         y="367.10825"
         rx="5.231173" />
      <g
         id="g3915"
         transform="translate(142.27743,3.9002219)">
        <rect
           y="375.26581"
           x="1029.7842"
           height="24.718775"
           width="6.921257"
           id="rect3890"
           style="opacity:0.12244897;fill:#f9f9f9;fill-opacity:1;stroke:none" />
        <rect
           transform="matrix(0.01735085,0.99984946,-0.99984946,0.01735085,0,0)"
           y="-1038.4874"
           x="401.38541"
           height="24.718775"
           width="6.921257"
           id="rect3890-1"
           style="opacity:0.12244897;fill:#f9f9f9;fill-opacity:1;stroke:none" />
      </g>
    </g>
  </g>
  <g
     id="g4081"
     inkscape:label="Gear10"
     transform="matrix(0.74832839,0,0,0.74832839,943.73674,880.2851)"
     style="fill:#ffffff;stroke:#ffffff;stroke-opacity:0.28148150999999999;opacity:0.15306122">
    <path
       id="path4083"
       style="fill:#ffffff;stroke:#ffffff;stroke-opacity:0.28148150999999999"
       d="m 31.43,-5.036 7.261,-1.163 0.608,-0.025 8.328,2.845 0,6.758 -8.328,2.845 -0.608,-0.025 -7.261,-1.163 -3.043,9.364 6.558,3.327 0.507,0.337 5.065,7.197 -3.972,5.467 -8.41,-2.593 -0.477,-0.378 -5.191,-5.209 -7.965,5.788 3.35,6.545 0.212,0.571 -0.133,8.8 -6.427,2.088 -5.28,-7.041 -0.164,-0.586 -1.137,-7.265 -9.846,0 -1.137,7.265 -0.164,0.586 -5.28,7.041 -6.427,-2.088 -0.133,-8.8 0.212,-0.571 3.35,-6.545 -7.965,-5.788 -5.191,5.209 -0.477,0.378 -8.41,2.593 -3.972,-5.467 5.065,-7.197 0.507,-0.337 6.558,-3.327 -3.043,-9.364 -7.261,1.163 -0.608,0.025 -8.328,-2.845 0,-6.758 8.328,-2.845 0.608,0.025 7.261,1.163 3.043,-9.364 -6.558,-3.327 -0.507,-0.337 -5.065,-7.197 3.972,-5.467 8.41,2.593 0.477,0.378 5.191,5.209 7.965,-5.788 -3.35,-6.545 -0.212,-0.571 0.133,-8.8 6.427,-2.088 5.28,7.041 0.164,0.586 1.137,7.265 9.846,0 1.137,-7.265 0.164,-0.586 5.28,-7.041 6.427,2.088 0.133,8.8 -0.212,0.571 -3.35,6.545 7.965,5.788 5.191,-5.209 0.477,-0.378 8.41,-2.593 3.972,5.467 -5.065,7.197 -0.507,0.337 -6.558,3.327 z"
       inkscape:connector-curvature="0" />
  </g>
  <g
     inkscape:groupmode="layer"
     id="layer4"
     inkscape:label="temps">
    <text
       xml:space="preserve"
       style="font-size:40px;font-style:normal;font-weight:normal;line-height:125%;letter-spacing:0px;word-spacing:0px;fill:#000000;fill-opacity:1;stroke:none;font-family:Sans"
       x="15.325641"
       y="266.00882"
       id="text4114"
       sodipodi:linespacing="125%"><tspan
         sodipodi:role="line"
         id="tspan4116"
         x="15.325641"
         y="266.00882"
         style="font-style:normal;font-variant:normal;font-weight:bold;font-stretch:normal;fill:#ffffff;font-family:Digital Readout Thick Upright;-inkscape-font-specification:Digital Readout Thick Upright Bold;opacity:0.15646259">4°C</tspan></text>
    <text
       xml:space="preserve"
       style="font-size:40px;font-style:normal;font-weight:normal;line-height:125%;letter-spacing:0px;word-spacing:0px;fill:#000000;fill-opacity:1;stroke:none;font-family:Sans"
       x="1190.7777"
       y="510.67392"
       id="text4114-0"
       sodipodi:linespacing="125%"><tspan
         sodipodi:role="line"
         id="tspan4116-6"
         x="1190.7777"
         y="510.67392"
         style="font-style:normal;font-variant:normal;font-weight:bold;font-stretch:normal;opacity:0.15646261;fill:#ffffff;font-family:Digital Readout Thick Upright;-inkscape-font-specification:Digital Readout Thick Upright Bold">6°C</tspan></text>
  </g>
  <text
     xml:space="preserve"
     style="font-size:40px;font-style:normal;font-weight:normal;line-height:125%;letter-spacing:0px;word-spacing:0px;fill:#000000;fill-opacity:1;stroke:none;font-family:Sans"
     x="899.59064"
     y="950.66815"
     id="text4114-0-7"
     sodipodi:linespacing="125%"><tspan
       sodipodi:role="line"
       id="tspan4116-6-9"
       x="899.59064"
       y="950.66815"
       style="font-style:normal;font-variant:normal;font-weight:bold;font-stretch:normal;opacity:0.15646261;fill:#ffffff;font-family:Digital Readout Thick Upright;-inkscape-font-specification:Digital Readout Thick Upright Bold">15°C</tspan></text>
</svg>
